<svg xmlns="http://www.w3.org/2000/svg" viewBox="0 0 18.31133 30.75968"><defs><style>.cls-1{fill:#999;}</style></defs><g id="Layer_2" data-name="Layer 2"><g id="Layer_1-2" data-name="Layer 1"><path class="cls-1" d="M9.60012,22.98411c.00041,1.05447.05549,2.10894.09493,3.16341l.06174,1.59295a2.90995,2.90995,0,0,1-.52123,1.71619,3.02258,3.02258,0,0,1-1.46984,1.12452,3.12854,3.12854,0,0,1-1.907.0565,3.20648,3.20648,0,0,1-1.629-1.09828,3.29643,3.29643,0,0,1-.70355-1.89665l-.00157-.0377A.80873.80873,0,1,1,5.14064,27.538a.89391.89391,0,0,1-.00244.10479,1.77218,1.77218,0,0,0,.249,1.0662,1.87333,1.87333,0,0,0,.86963.75738,1.98416,1.98416,0,0,0,1.20527.11,2.064,2.064,0,0,0,1.09023-.64574,2.13839,2.13839,0,0,0,.53-1.21266c.00239-.02929.00593-.05564.00761-.08755l.0039-.09885.0078-.19772.0156-.39542.0312-.79085c.03944-1.05447.09453-2.10894.09493-3.16341a.17839.17839,0,0,1,.35677,0Z"/><circle class="cls-1" cx="9.15558" cy="1.15016" r="1.15016"/><path class="cls-1" d="M6.4783,24.51526a.64184.64184,0,0,1-.40033-.14018L3.96769,22.69774a.32572.32572,0,0,0-.32485-.0461L.8888,23.78415a.64365.64365,0,0,1-.8384-.84432L6.95384,6.47893a2.42779,2.42779,0,0,1,4.478,0l6.82876,16.28324a.64373.64373,0,0,1-.85807.8357l-2.44834-1.102a.32243.32243,0,0,0-.33509.04232l-2.00838,1.59592a.64657.64657,0,0,1-.80767-.00512L9.44854,22.20387a.32309.32309,0,0,0-.43564.02264L6.93605,24.32413A.64439.64439,0,0,1,6.4783,24.51526ZM3.76577,21.85449a1.09647,1.09647,0,0,1,.68285.23831l2.01943,1.60509,1.99544-2.01512a1.09191,1.09191,0,0,1,1.47434-.0771l2.27338,1.85876,1.927-1.53149a1.09386,1.09386,0,0,1,1.133-.1418l2.14964.96753-6.70179-15.981a1.65517,1.65517,0,0,0-3.05247,0L.88422,22.95034,3.34873,21.937A1.09546,1.09546,0,0,1,3.76577,21.85449Zm13.95406,1.0387h0Z"/></g></g></svg>