<svg xmlns="http://www.w3.org/2000/svg" viewBox="0 0 46.52782 23.66749"><defs><style>.cls-1{fill:#fff;}</style></defs><g id="Layer_2" data-name="Layer 2"><g id="Layer_1-2" data-name="Layer 1"><path class="cls-1" d="M12.64767,23.66749a10.28749,10.28749,0,1,1,20.575,0Z"/><path class="cls-1" d="M36.53285,23.44893a1.49991,1.49991,0,0,1-.04785-2.999l8.49414-.27881a1.49982,1.49982,0,1,1,.09765,2.998l-8.49414.27881C36.566,23.44845,36.54945,23.44893,36.53285,23.44893Z"/><path class="cls-1" d="M31.2392,13.50013a1.127,1.127,0,0,1,.01714-1.59284l5.8139-5.92068a1.49894,1.49894,0,1,1,2.14168,2.09774L33.398,14.005a.41125.41125,0,0,1-.556.06357A1.2221,1.2221,0,0,1,31.2392,13.50013Z"/><path class="cls-1" d="M22.00859,10.3708a.75435.75435,0,0,1-.70758-.79523l.13552-8.09912A1.50018,1.50018,0,0,1,22.95708.00018,1.478,1.478,0,0,1,24.43358,1.521l-.13552,8.09912a.77344.77344,0,0,1-.73217.79391A1.11438,1.11438,0,0,1,22.00859,10.3708Z"/><path class="cls-1" d="M12.46592,14.18952a.38176.38176,0,0,1-.53094-.07342L6.74562,8.15178a1.49974,1.49974,0,0,1,.14368-2.115,1.46826,1.46826,0,0,1,2.1152.14371l5.18936,5.96432a1.13664,1.13664,0,0,1-.06821,1.59919A1.22239,1.22239,0,0,1,12.46592,14.18952Z"/><path class="cls-1" d="M9.21488,23.48082H9.20512L1.49027,23.43A1.5001,1.5001,0,0,1,0,21.92027,1.45932,1.45932,0,0,1,1.5098,20.43l7.71485.05078a1.5,1.5,0,0,1-.00977,3Z"/></g></g></svg>