<svg xmlns="http://www.w3.org/2000/svg" viewBox="0 0 74.0818 55.29012"><defs><style>.cls-1{fill:#999;}</style></defs><g id="Layer_2" data-name="Layer 2"><g id="Layer_1-2" data-name="Layer 1"><path class="cls-1" d="M37.55773,35.75518c.001,2.6492.1394,5.29839.2385,7.94759l.15509,4.002a7.31072,7.31072,0,0,1-1.3095,4.31166,7.59372,7.59372,0,0,1-3.69276,2.82519,7.85982,7.85982,0,0,1-4.79109.142,8.05584,8.05584,0,0,1-4.09262-2.75925,8.28191,8.28191,0,0,1-1.76757-4.76505l-.00393-.09471A2.0318,2.0318,0,1,1,26.354,47.196a2.24385,2.24385,0,0,1-.00615.26328,4.45231,4.45231,0,0,0,.62564,2.67866,4.70626,4.70626,0,0,0,2.18482,1.90279,4.98474,4.98474,0,0,0,3.02805.27632,5.18553,5.18553,0,0,0,2.739-1.62233,5.37241,5.37241,0,0,0,1.33145-3.04661c.006-.07358.01488-.13978.01911-.22l.0098-.24837.01959-.49672.03919-.99345.07838-1.98689c.0991-2.6492.2375-5.29839.2385-7.94759a.44818.44818,0,0,1,.89635,0Z"/><circle class="cls-1" cx="36.86286" cy="2.08324" r="2.08324"/><path class="cls-1" d="M74.05953,35.807A37.67567,37.67567,0,0,0,37.04023,5.03085h-.00809A37.67936,37.67936,0,0,0,.023,35.70172a1.2625,1.2625,0,0,0,.79582,1.42764,1.26283,1.26283,0,0,0,1.54712-.52245,11.72452,11.72452,0,0,1,21.11887,2.41988,1.26727,1.26727,0,0,0,1.20489.86672h.01418a1.283,1.283,0,0,0,1.213-.90519,11.80773,11.80773,0,0,1,11.19226-8.26206,11.68343,11.68343,0,0,1,11.15377,8.13448,1.26593,1.26593,0,0,0,1.19477.88494,1.29051,1.29051,0,0,0,1.2231-.8505,11.70787,11.70787,0,0,1,21.03383-2.189A1.27767,1.27767,0,0,0,74.0818,36.048,1.40444,1.40444,0,0,0,74.05953,35.807ZM61.72111,29.47278a13.3614,13.3614,0,0,0-11.70661,6.96q-.28552.51639-.52245,1.06313a13.32322,13.32322,0,0,0-24.81049.11139,13.3485,13.3485,0,0,0-12.32221-8.21751,13.25813,13.25813,0,0,0-10.4025,4.98761A36.09027,36.09027,0,0,1,32.9254,6.88171a36.35449,36.35449,0,0,1,4.10674-.23085h.00809c.04657,0,.09113,0,.1377.002a36.46349,36.46349,0,0,1,3.97511.23086A36.08434,36.08434,0,0,1,72.12968,34.47862,13.23513,13.23513,0,0,0,61.72111,29.47278Z"/></g></g></svg>