<svg xmlns="http://www.w3.org/2000/svg" viewBox="0 0 513.11374 85.27166"><defs><style>.cls-1{fill:#707070;}</style></defs><g id="Layer_2" data-name="Layer 2"><g id="Layer_1-2" data-name="Layer 1"><path class="cls-1" d="M49.115,75.52389q-8.02418,9.74831-22.19525,9.74777-13.04745,0-19.90877-7.49837Q.14992,70.27709,0,55.80266V2.63917H14.06685a7.60393,7.60393,0,0,1,7.60394,7.60393V55.11376q0,12.68715,11.54739,12.68715,11.02268,0,15.1472-7.6585V10.2431a7.60393,7.60393,0,0,1,7.60393-7.60393H70.11086V65.57273a18.19969,18.19969,0,0,1-18.1997,18.19969H49.71524Z"/><path class="cls-1" d="M95.295,11.712h0q8.62227-10.57209,23.32-10.57209,15.67111,0,21.52086,12.37225,8.5481-12.37278,24.37-12.37225,13.19656,0,19.646,7.68537,6.44755,7.68645,6.44836,23.13241V83.77242h-9.95964a11.78584,11.78584,0,0,1-11.78584-11.78585V32.03294q0-6.89814-2.69918-10.08524-2.69944-3.18709-9.52315-3.18656-9.74831,0-13.49749,9.29746l.06059,44.87113a10.82807,10.82807,0,0,1-10.828,10.84269h0a10.82807,10.82807,0,0,1-10.82806-10.82807V32.10817q0-7.04807-2.77441-10.19808T109.317,18.76114q-.09222,0-.18395.00076A13.43546,13.43546,0,0,0,95.97,32.28341v51.489H91.33772A17.03855,17.03855,0,0,1,74.29917,66.73386V2.63917h11.223A9.79982,9.79982,0,0,1,95.295,11.712Z"/><path class="cls-1" d="M267.05986,47.87927A53.51037,53.51037,0,0,1,265.47979,60.116a38.60317,38.60317,0,0,1-6.58565,14.24607q-8.32322,10.91062-23.24525,10.90955-13.19818,0-21.07055-10.12285h0a9.71476,9.71476,0,0,1-9.65329,8.6236H194.10748V20.29688A20.29688,20.29688,0,0,1,214.40436,0h1.37391V16.78251q7.49693-8.77288,19.72041-8.773C257.55705,8.00934,267.35326,28.44389,267.05986,47.87927ZM245.7752,46.30694A25.98446,25.98446,0,0,0,241.648,31.29132q-3.90045-5.66005-11.62263-5.66059-.10349,0-.20632.00085A14.30005,14.30005,0,0,0,215.77827,40.008V59.25253q3.973,8.54892,14.397,8.54838,10.4957,0,13.79591-10.34573A38.12845,38.12845,0,0,0,245.7752,46.30694Z"/><path class="cls-1" d="M317.13205,14.629a7.88961,7.88961,0,0,1-7.85045,7.73146l-.06759-.00006q-12.29863,0-16.122,8.32268V72.93731a10.83511,10.83511,0,0,1-10.83511,10.83511H271.42179V12.94972A10.31056,10.31056,0,0,1,281.73235,2.63917h10.16029l.5997,9.67253q6.52413-11.17177,18.07153-11.17178l6.7621.00918Z"/><path class="cls-1" d="M353.65287,85.27166q-17.84584,0-29.05631-10.94716-11.21048-10.9477-11.2094-29.16915v-2.1a49.02179,49.02179,0,0,1,4.72343-21.85779A34.67533,34.67533,0,0,1,331.49523,6.35127a37.56538,37.56538,0,0,1,19.75885-5.21135q16.64643,0,26.2072,10.49686,9.5597,10.49953,9.55969,29.76885h0a8.84821,8.84821,0,0,1-8.84821,8.84822h-42.816a20.12792,20.12792,0,0,0,6.33659,12.74733A19.14913,19.14913,0,0,0,355.078,67.80091q12.52269,0,19.57066-9.07295l1.68606,1.88771a13.19411,13.19411,0,0,1-4.06908,20.717q-.08289.03891-.16612.07752A43.3052,43.3052,0,0,1,353.65287,85.27166Zm-2.47415-66.66849a14.31963,14.31963,0,0,0-10.01607,3.89136c-3.30829,3.362-5.12328,8.35854-5.56963,12.99323l25.66087-.00584a4.26905,4.26905,0,0,0,4.21344-4.93034,18.28349,18.28349,0,0,0-.638-2.73312,13.20512,13.20512,0,0,0-4.2113-6.37476,14.22277,14.22277,0,0,0-7.68567-2.78141C352.35382,18.614,351.76752,18.59383,351.17872,18.60317Z"/><path class="cls-1" d="M395.849,83.77242h-5.492V13.51216a10.873,10.873,0,0,1,10.873-10.873h0a10.873,10.873,0,0,1,10.873,10.873V67.51839A16.254,16.254,0,0,1,395.849,83.77242Z"/><path class="cls-1" d="M437.55252,83.77242H432.4142a16.6077,16.6077,0,0,1-16.6077-16.6077V13.51216a10.873,10.873,0,0,1,10.873-10.873h0a10.873,10.873,0,0,1,10.873,10.873Z"/><path class="cls-1" d="M489.05772,76.58552l-.01356-.08685q-7.87344,8.773-20.47139,8.773-11.923,0-19.75884-6.89867a22.18192,22.18192,0,0,1-7.83583-17.39552q0-12.89671,9.56076-19.79646,9.56132-6.89814,27.6323-6.9739h5.3242a4.64819,4.64819,0,0,0,4.64818-4.64819h0a13.37453,13.37453,0,0,0-2.88671-8.99868q-2.88726-3.3741-9.11046-3.37464-5.47465,0-8.586,2.62448a8.91929,8.91929,0,0,0-3.1112,7.19849h-10.6186a8.22866,8.22866,0,0,1-6.78948-12.927q.04307-.06011.08658-.12011a28.75189,28.75189,0,0,1,12.297-9.41031,44.8248,44.8248,0,0,1,17.84691-3.41118q14.99566,0,23.80734,7.53491,8.81007,7.53653,8.81061,21.18393V65.026q.0686,10.68267,2.769,16.55141a5.2438,5.2438,0,0,1,.4552,2.195H497.45382A8.49782,8.49782,0,0,1,489.05772,76.58552Zm-15.76045-7.88507a18.67548,18.67548,0,0,0,8.84822-2.13655l.08075-.0429a11.147,11.147,0,0,0,5.9173-9.84411V46.88028h-8.09806q-16.27244,0-17.32137,11.247l-.07523,1.27463A8.67405,8.67405,0,0,0,465.498,66.076,11.06626,11.06626,0,0,0,473.29727,68.70045Z"/></g></g></svg>