<svg xmlns="http://www.w3.org/2000/svg" viewBox="0 0 513.11374 396.3898"><defs><style>.cls-1{fill:#707070;}.cls-2{fill:#fff;}</style></defs><g id="Layer_2" data-name="Layer 2"><g id="Layer_1-2" data-name="Layer 1"><path class="cls-1" d="M262.54129,176.56752c.005,13.08235.68839,26.16468,1.17777,39.24705l.7659,19.76309a36.10231,36.10231,0,0,1-6.46662,21.292,37.49957,37.49957,0,0,1-18.23572,13.95144,38.81332,38.81332,0,0,1-23.65954.701,39.78157,39.78157,0,0,1-20.21034-13.62582,40.89816,40.89816,0,0,1-8.72867-23.53095l-.01943-.46771a10.03354,10.03354,0,0,1,20.04981-.83243,11.08409,11.08409,0,0,1-.03038,1.30014,21.98651,21.98651,0,0,0,3.08955,13.22785,23.24046,23.24046,0,0,0,10.78916,9.39645,24.61591,24.61591,0,0,0,14.95324,1.3645,25.60706,25.60706,0,0,0,13.526-8.01141,26.52994,26.52994,0,0,0,6.575-15.04489c.02963-.36338.07351-.69028.09439-1.08618l.04837-1.22648.09677-2.45294.19354-4.90588.387-9.81174c.48942-13.08237,1.17283-26.1647,1.1778-39.247a2.21318,2.21318,0,0,1,4.42636,0Z"/><path class="cls-1" d="M49.115,386.642q-8.02418,9.74831-22.19525,9.74777-13.04745,0-19.90877-7.49837Q.14992,381.39523,0,366.9208V313.75731H14.06685a7.60393,7.60393,0,0,1,7.60394,7.60393V366.2319q0,12.68715,11.54739,12.68715,11.02268,0,15.1472-7.6585V321.36124a7.60393,7.60393,0,0,1,7.60393-7.60393H70.11086v62.93355a18.1997,18.1997,0,0,1-18.1997,18.1997H49.71524Z"/><path class="cls-1" d="M95.295,322.83014h0q8.62227-10.57209,23.32-10.57209,15.67111,0,21.52086,12.37225,8.5481-12.37278,24.37-12.37225,13.19656,0,19.646,7.68537,6.44755,7.68645,6.44836,23.13241v51.81472h-9.95964a11.78584,11.78584,0,0,1-11.78584-11.78585V343.15108q0-6.89814-2.69918-10.08524-2.69944-3.18709-9.52315-3.18656-9.74831,0-13.49749,9.29746l.06059,44.87113a10.82807,10.82807,0,0,1-10.828,10.84269h0a10.82807,10.82807,0,0,1-10.82806-10.82807V343.22631q0-7.04807-2.77441-10.19808t-9.44792-3.149q-.09222,0-.18395.00076A13.43546,13.43546,0,0,0,95.97,343.40155v51.489H91.33772A17.03855,17.03855,0,0,1,74.29917,377.852V313.75731h11.223A9.79982,9.79982,0,0,1,95.295,322.83014Z"/><path class="cls-1" d="M267.05986,358.99741a53.51037,53.51037,0,0,1-1.58007,12.23677,38.60317,38.60317,0,0,1-6.58565,14.24607q-8.32322,10.91063-23.24525,10.90955-13.19818,0-21.07055-10.12285h0a9.71476,9.71476,0,0,1-9.65329,8.6236H194.10748V331.415a20.29688,20.29688,0,0,1,20.29688-20.29688h1.37391v16.78251q7.49693-8.77289,19.72041-8.773C257.55705,319.12748,267.35326,339.562,267.05986,358.99741Zm-21.28466-1.57233a25.98446,25.98446,0,0,0-4.12719-15.01562q-3.90045-5.66005-11.62263-5.66059-.10349,0-.20632.00085a14.30005,14.30005,0,0,0-14.04079,14.37641v19.24454q3.973,8.54892,14.397,8.54838,10.4957,0,13.79591-10.34573A38.12845,38.12845,0,0,0,245.7752,357.42508Z"/><path class="cls-1" d="M317.13205,325.74714a7.88961,7.88961,0,0,1-7.85045,7.73146l-.06759-.00006q-12.29863,0-16.122,8.32268v42.25423a10.83511,10.83511,0,0,1-10.83511,10.83511H271.42179v-70.8227a10.31056,10.31056,0,0,1,10.31056-10.31055h10.16029l.5997,9.67253q6.52413-11.17178,18.07153-11.17178l6.7621.00918Z"/><path class="cls-1" d="M353.65287,396.3898q-17.84584,0-29.05631-10.94716-11.21048-10.94771-11.2094-29.16915v-2.1a49.02179,49.02179,0,0,1,4.72343-21.85779,34.67533,34.67533,0,0,1,13.38464-14.84627,37.56538,37.56538,0,0,1,19.75885-5.21135q16.64643,0,26.2072,10.49686,9.5597,10.49953,9.55969,29.76884h0a8.84821,8.84821,0,0,1-8.84821,8.84822h-42.816a20.12792,20.12792,0,0,0,6.33659,12.74733,19.14913,19.14913,0,0,0,13.38464,4.79973q12.52269,0,19.57066-9.073l1.68606,1.88771a13.19411,13.19411,0,0,1-4.06908,20.717q-.08289.03891-.16612.07752A43.3052,43.3052,0,0,1,353.65287,396.3898Zm-2.47415-66.66849a14.31963,14.31963,0,0,0-10.01607,3.89136c-3.30829,3.362-5.12328,8.35854-5.56963,12.99323l25.66087-.00584a4.26905,4.26905,0,0,0,4.21344-4.93034,18.28349,18.28349,0,0,0-.638-2.73312,13.20512,13.20512,0,0,0-4.2113-6.37476,14.22277,14.22277,0,0,0-7.68567-2.78141C352.35382,329.73209,351.76752,329.712,351.17872,329.72131Z"/><path class="cls-1" d="M395.849,394.89056h-5.492V324.6303a10.873,10.873,0,0,1,10.873-10.873h0a10.873,10.873,0,0,1,10.873,10.873v54.00623A16.254,16.254,0,0,1,395.849,394.89056Z"/><path class="cls-1" d="M437.55252,394.89056H432.4142a16.6077,16.6077,0,0,1-16.6077-16.6077V324.6303a10.873,10.873,0,0,1,10.873-10.873h0a10.873,10.873,0,0,1,10.873,10.873Z"/><path class="cls-1" d="M489.05772,387.70366l-.01356-.08685q-7.87344,8.773-20.47139,8.773-11.923,0-19.75884-6.89867a22.18192,22.18192,0,0,1-7.83583-17.39552q0-12.89672,9.56076-19.79646,9.56132-6.89814,27.6323-6.9739h5.3242a4.64819,4.64819,0,0,0,4.64818-4.64819h0a13.37453,13.37453,0,0,0-2.88671-8.99868q-2.88726-3.3741-9.11046-3.37464-5.47465,0-8.586,2.62448a8.91929,8.91929,0,0,0-3.1112,7.19849h-10.6186a8.22866,8.22866,0,0,1-6.78948-12.927q.04307-.06011.08658-.12011a28.75189,28.75189,0,0,1,12.297-9.41031,44.8248,44.8248,0,0,1,17.84691-3.41118q14.99566,0,23.80734,7.53491,8.81007,7.53652,8.81061,21.18393v35.1672q.0686,10.68267,2.769,16.55141a5.2438,5.2438,0,0,1,.4552,2.195H497.45382A8.49782,8.49782,0,0,1,489.05772,387.70366Zm-15.76045-7.88507a18.67548,18.67548,0,0,0,8.84822-2.13655l.08075-.0429a11.147,11.147,0,0,0,5.9173-9.84411v-9.79661h-8.09806q-16.27244,0-17.32137,11.247l-.07523,1.27463a8.67405,8.67405,0,0,0,2.8491,6.67405A11.06626,11.06626,0,0,0,473.29727,379.81859Z"/><polygon class="cls-1" points="260.058 258.916 259.863 258.976 260.058 259.021 260.058 258.916 260.058 258.916"/><path class="cls-1" d="M198.993,197.00616a6.24942,6.24942,0,0,1-5.94336-4.2793,57.9051,57.9051,0,0,0-104.29638-11.957,6.30443,6.30443,0,0,1-11.56739-4.46533A185.96788,185.96788,0,0,1,391.413,79.30645a184.48117,184.48117,0,0,1,51.38378,97.51709h0a6.30411,6.30411,0,0,1-11.57812,4.43506,57.82236,57.82236,0,0,0-103.876,10.81641,6.34183,6.34183,0,0,1-6.03808,4.20215,6.21751,6.21751,0,0,1-5.90039-4.37305,57.69869,57.69869,0,0,0-55.07569-40.17041A58.31664,58.31664,0,0,0,205.05164,192.535a6.322,6.322,0,0,1-5.98438,4.4707C199.04285,197.00616,199.018,197.00616,198.993,197.00616Zm-60.88916-51.87158a65.87024,65.87024,0,0,1,60.855,40.57764A65.84463,65.84463,0,0,1,321.47547,185.16a66.00383,66.00383,0,0,1,60.38867-39.61719,65.34528,65.34528,0,0,1,51.40429,24.72266,178.03157,178.03157,0,0,0-346.53369-.49805A65.45719,65.45719,0,0,1,138.10388,145.13458Z"/><path class="cls-1" d="M320.92566,197.00616a3.99871,3.99871,0,0,1-3.98926-3.77393c-2.24316-39.61083-8.10742-75.7041-16.959-104.37744C288.996,53.261,274.41492,32.84747,259.974,32.84747S230.95252,53.261,219.97058,88.85431c-8.80664,28.53076-14.65967,64.43164-16.92724,103.82128a3.99978,3.99978,0,1,1-7.98633-.46c2.30371-40.02441,8.27539-76.582,17.269-105.72021C224.7699,46.16534,241.246,24.84747,259.974,24.84747s35.20459,21.31787,47.648,61.64844c9.03906,29.28271,15.02148,66.03564,17.30078,106.28418a3.99966,3.99966,0,0,1-3.7666,4.21972C321.079,197.00421,321.00183,197.00616,320.92566,197.00616Z"/><circle class="cls-1" cx="259.10986" cy="10.28755" r="10.28755"/><path class="cls-1" d="M442.79578,176.82354a186.05135,186.05135,0,0,0-182.81-151.98h-.04a186.06968,186.06968,0,0,0-182.76,151.46,6.30691,6.30691,0,0,0,11.57,4.47,57.89842,57.89842,0,0,1,104.29,11.95,6.258,6.258,0,0,0,5.95,4.28h.07a6.33556,6.33556,0,0,0,5.99-4.47,58.30935,58.30935,0,0,1,55.27-40.8,57.6955,57.6955,0,0,1,55.08,40.17,6.25145,6.25145,0,0,0,5.9,4.37006,6.373,6.373,0,0,0,6.04-4.2,57.81622,57.81622,0,0,1,103.87-10.81,6.30942,6.30942,0,0,0,11.69-3.25A6.93312,6.93312,0,0,0,442.79578,176.82354Zm-60.93-31.28a65.98172,65.98172,0,0,0-57.81,34.37q-1.41,2.55-2.58,5.25a65.79314,65.79314,0,0,0-122.52.55,65.90112,65.90112,0,0,0-112.22-15.95,178.22209,178.22209,0,0,1,152.93-135.78,179.52293,179.52293,0,0,1,20.28-1.14h.04c.23,0,.45,0,.68.01a180.05458,180.05458,0,0,1,19.63,1.14,178.193,178.193,0,0,1,152.97,136.27A65.35833,65.35833,0,0,0,381.86578,145.54351Z"/><path class="cls-1" d="M415.31818,149.36583a51.22494,51.22494,0,0,0-39.33872-17.82336c-18.59787,0-35.51969,9.7048-44.2446,24.78107-2.08938-25.38669-6.39828-48.50945-12.57462-67.35664-5.90083-18.00357-12.98027-30.75822-20.91689-37.853a138.52869,138.52869,0,0,1,80.71332,36.74984A125.57435,125.57435,0,0,1,415.31818,149.36583Z"/><path class="cls-1" d="M300.99443,142.9272c-8.81519-11.94529-23.985-19.4363-40.77307-19.4363-17.23139,0-32.66724,7.81614-41.36423,20.24262,2.09113-21.062,6.03689-40.2121,11.54178-55.92893,8.11326-23.12978,18.87915-36.40158,29.54167-36.42111h.02954c.16993,0,.33251,0,.50245.00651,10.49993.41618,21.05894,13.6425,29.04656,36.4146C294.9649,103.31984,298.88111,122.18387,300.99443,142.9272Z"/><path class="cls-1" d="M220.35,51.11394c-7.92,7.10363-14.97778,19.87424-20.86051,37.90758-6.11931,18.7697-10.415,41.80588-12.51329,67.07278-8.70591-15.0807-25.4996-24.73988-44.11692-24.73988a51.07217,51.07217,0,0,0-39.19554,17.78069A125.92677,125.92677,0,0,1,139.83017,87.917,137.8644,137.8644,0,0,1,220.35,51.11394Z"/><path class="cls-1" d="M324.92578,192.7835a4.0149,4.0149,0,0,1-3.77,4.22h-.23a3.97327,3.97327,0,0,1-3.55-2.17,3.88966,3.88966,0,0,1-.44-1.6q-.57-9.96-1.43-19.61c-2.86005-31.9-8.16-60.91-15.53-84.77-10.81-35.02-25.1-55.36-39.31-56-.23-.01-.45-.01-.68-.01h-.04c-14.43005.03-29,20.44-39.98,56.01-7.45,24.17005-12.79,53.62-15.62,86.01-.52,5.84-.95,11.79-1.3,17.81a4.00161,4.00161,0,1,1-7.99-.46q.375-6.46509.87-12.81006c2.75-35,8.38-66.91,16.4-92.91,7.71-24.98,16.96-42.67,27.34-52.51,6.37-6.04,13.16-9.13,20.28-9.14h.04c7.13,0,13.94,3.09,20.31,9.15,10.37,9.84,19.62,27.53,27.33,52.5,8.07,26.14,13.7,58.21,16.43,93.42C324.39575,184.1535,324.67578,188.45355,324.92578,192.7835Z"/><polygon class="cls-2" points="263.617 7.686 263.617 12.891 259.11 15.492 254.603 12.891 254.603 7.686 259.11 5.083 263.617 7.686"/><circle class="cls-2" cx="197.18407" cy="234.36531" r="5.90852"/><path class="cls-1" d="M197.184,240.77374a6.40845,6.40845,0,1,1,6.40869-6.4082A6.41521,6.41521,0,0,1,197.184,240.77374Zm0-11.8169a5.40845,5.40845,0,1,0,5.40869,5.4087A5.41464,5.41464,0,0,0,197.184,228.95684Z"/><circle class="cls-2" cx="426.67951" cy="323.81057" r="5.90852"/><path class="cls-1" d="M426.67957,330.21905a6.40869,6.40869,0,1,1,6.4082-6.4082A6.41584,6.41584,0,0,1,426.67957,330.21905Zm0-11.81738a5.40869,5.40869,0,1,0,5.4082,5.40918A5.41474,5.41474,0,0,0,426.67957,318.40167Z"/></g></g></svg>